# xmcd CD database file
# Copyright (C) 1996 Ti Kan
#
# Track frame offsets:
#  150
#  14160
#  23510
#  33400
#  46977
#  62297
#  74355
#  86022
#  100837
#  113055
#  127175
#  138292
#  150490
#  165135
#  178067
#  192052
#  205020
#  221842
#  233850
#  251352
#
# Disc length: 3539 seconds
#
# Revision: 1
# Processed by: cddbd v1.4b41PL1 Copyright (c) Steve Scherf et al.
# Submitted via: CDWizzard Release:4.12
#
DISCID=070dd114
DTITLE=Don Williams - Don Williams
DYEAR=1900
DGENRE=
TTITLE0=Come Early Morning
TTITLE1=Too Late to Turn Back Now
TTITLE2=Endless Sleep
TTITLE3=The Shelter of Your Eyes
TTITLE4=I Recall a Gypsy Woman
TTITLE5=No Use Running
TTITLE6=How Much Time Does it Take
TTITLE7=My Woman's Love
TTITLE8=Don't You Believe
TTITLE9=Amanda
TTITLE10=Wish I Was in Nashville
TTITLE11=Your Sweet Love
TTITLE12=She's in Love With a Rodeo Man
TTITLE13=Atta Way to Go
TTITLE14=We Should be Together
TTITLE15=Loving You so Long Now
TTITLE16=Oh Misery
TTITLE17=Miller's Cave
TTITLE18=I Don't Think About Her No More
TTITLE19=Down the Road I Go
EXTD=
EXTT0=
EXTT1=
EXTT2=
EXTT3=
EXTT4=
EXTT5=
EXTT6=
EXTT7=
EXTT8=
EXTT9=
EXTT10=
EXTT11=
EXTT12=
EXTT13=
EXTT14=
EXTT15=
EXTT16=
EXTT17=
EXTT18=
EXTT19=
PLAYORDER=
